<svg width="358.9347778320312px" height="113.4956573486328px" xmlns="http://www.w3.org/2000/svg" viewBox="70.53261108398439 18.252171325683598 358.9347778320312 113.4956573486328" style="background:#fff" preserveAspectRatio="xMidYMid"><defs><filter id="editing-marble" x="-100%" y="-100%" width="300%" height="300%"><feFlood flood-color="#b44607" result="flood-1"></feFlood><feComposite operator="in" in="flood-1" in2="SourceAlpha" result="flood-2"></feComposite><feTurbulence baseFrequency="0.16" type="fractalNoise" numOctaves="1" seed="2" result="bs-1"></feTurbulence><feGaussianBlur stdDeviation="2.9" in="flood-2" result="bs-2"></feGaussianBlur><feDisplacementMap scale="138" in="bs-2" in2="bs-1" result="bs-3"></feDisplacementMap><feComposite operator="in" in="bs-3" in2="SourceAlpha" result="texture"></feComposite><feMerge><feMergeNode in="SourceGraphic"></feMergeNode><feMergeNode in="texture"></feMergeNode></feMerge></filter></defs><g filter="url(#editing-marble)"><g transform="translate(128.40047121047974, 99.15999984741211)"><path d="M28.50-4.04L28.50-4.04L28.50-4.04Q26.02-1.53 22.63-0.18L22.63-0.18L22.63-0.18Q19.23 1.18 15.87 1.18L15.87 1.18L15.87 1.18Q12.51 1.18 11.33 0.59L11.33 0.59L9.50 10.62L-2.48 11.80L5.66-30.09L15.28-31.09L14.51-27.02L14.51-27.02Q16.99-31.21 22.13-31.21L22.13-31.21L22.13-31.21Q27.91-31.21 30.98-27.49L30.98-27.49L30.98-27.49Q33.69-24.13 33.69-19.00L33.69-19.00L33.69-19.00Q33.69-13.87 32.33-10.21L32.33-10.21L32.33-10.21Q30.98-6.55 28.50-4.04ZM15.16-20.59L12.04-3.30L12.04-3.30Q13.28-2.24 14.81-2.24L14.81-2.24L14.81-2.24Q16.34-2.24 17.23-2.83L17.23-2.83L17.23-2.83Q18.11-3.42 18.76-4.60L18.76-4.60L18.76-4.60Q20.53-7.79 21.95-17.46L21.95-17.46L21.95-17.46Q22.36-20.30 22.36-23.07L22.36-23.07L22.36-23.07Q22.36-25.84 21.74-26.73L21.74-26.73L21.74-26.73Q21.12-27.61 19.94-27.61L19.94-27.61L19.94-27.61Q16.34-27.61 15.16-20.59L15.16-20.59ZM61.12-9.97L61.12-9.97L61.12-9.97Q62.60-8.97 62.60-6.76L62.60-6.76L62.60-6.76Q62.60-4.54 61.48-3.13L61.48-3.13L61.48-3.13Q60.36-1.71 58.53-0.77L58.53-0.77L58.53-0.77Q54.75 1.18 50.68 1.18L50.68 1.18L50.68 1.18Q46.61 1.18 44.22 0.30L44.22 0.30L44.22 0.30Q41.83-0.59 40.24-2.24L40.24-2.24L40.24-2.24Q37.11-5.37 37.11-11.09L37.11-11.09L37.11-11.09Q37.11-20.00 41.95-25.43L41.95-25.43L41.95-25.43Q47.14-31.27 56.17-31.27L56.17-31.27L56.17-31.27Q61.77-31.27 64.55-28.91L64.55-28.91L64.55-28.91Q66.61-27.14 66.61-24.25L66.61-24.25L66.61-24.25Q66.61-13.87 48.67-13.87L48.67-13.87L48.67-13.87Q48.44-12.33 48.44-11.03L48.44-11.03L48.44-11.03Q48.44-8.32 49.65-7.29L49.65-7.29L49.65-7.29Q50.86-6.25 53.10-6.25L53.10-6.25L53.10-6.25Q55.34-6.25 57.73-7.29L57.73-7.29L57.73-7.29Q60.12-8.32 61.12-9.97ZM49.09-16.40L49.09-16.40L49.09-16.40Q53.28-16.40 55.70-19.00L55.70-19.00L55.70-19.00Q58.12-21.48 58.12-25.43L58.12-25.43L58.12-25.43Q58.12-26.79 57.61-27.52L57.61-27.52L57.61-27.52Q57.11-28.26 56.11-28.26L56.11-28.26L56.11-28.26Q55.11-28.26 54.25-27.88L54.25-27.88L54.25-27.88Q53.39-27.49 52.51-26.20L52.51-26.20L52.51-26.20Q50.33-23.25 49.09-16.40ZM69.56-5.90L69.56-5.90L69.56-5.90Q69.56-7.49 70.39-11.51L70.39-11.51L73.51-27.44L70.03-27.44L70.27-29.21L70.27-29.21Q77.35-31.33 84.19-36.52L84.19-36.52L87.03-36.52L85.61-30.09L90.21-30.09L89.68-27.44L85.14-27.44L82.13-11.51L82.13-11.51Q81.36-7.85 81.36-6.61L81.36-6.61L81.36-6.61Q81.36-3.78 83.84-3.19L83.84-3.19L83.84-3.19Q83.25-1.18 81.13 0L81.13 0L81.13 0Q79.00 1.18 75.99 1.18L75.99 1.18L75.99 1.18Q72.98 1.18 71.27-0.71L71.27-0.71L71.27-0.71Q69.56-2.60 69.56-5.90ZM93.87-24.66L93.87-24.66L93.87-24.66Q95.88-27.49 98.91-29.38L98.91-29.38L98.91-29.38Q101.95-31.27 105.67-31.27L105.67-31.27L105.67-31.27Q109.39-31.27 111.16-30.09L111.16-30.09L122.72-31.27L118.71-8.61L118.71-8.61Q116.64 2.95 112.28 7.49L112.28 7.49L112.28 7.49Q108.09 11.80 99.95 11.80L99.95 11.80L99.95 11.80Q93.75 11.80 90.21 9.85L90.21 9.85L90.21 9.85Q86.67 7.91 86.67 4.66L86.67 4.66L86.67 4.66Q86.67 2.24 88.50 0.86L88.50 0.86L88.50 0.86Q90.33-0.53 93.16-0.53L93.16-0.53L93.16-0.53Q95.64-0.53 97.53 0.59L97.53 0.59L97.53 0.59Q98.65 1.18 99.18 2.01L99.18 2.01L99.18 2.01Q97.82 3.19 97.82 5.13L97.82 5.13L97.82 5.13Q97.82 7.67 100.18 7.67L100.18 7.67L100.18 7.67Q104.14 7.67 106.38-1.65L106.38-1.65L106.38-1.65Q107.03-4.19 107.56-6.73L107.56-6.73L107.56-6.73Q104.90-3.48 98.88-3.48L98.88-3.48L98.88-3.48Q94.70-3.48 92.28-5.49L92.28-5.49L92.28-5.49Q89.86-7.49 89.86-12.21L89.86-12.21L89.86-12.21Q89.86-15.16 90.86-18.50L90.86-18.50L90.86-18.50Q91.86-21.83 93.87-24.66ZM101.54-12.04L101.54-12.04L101.54-12.04Q101.54-8.02 103.60-8.02L103.60-8.02L103.60-8.02Q105.02-8.02 106.38-9.56L106.38-9.56L106.38-9.56Q107.44-10.80 107.85-12.63L107.85-12.63L110.86-27.79L110.86-27.79Q110.57-27.85 110.27-27.97L110.27-27.97L110.27-27.97Q109.68-28.20 108.91-28.20L108.91-28.20L108.91-28.20Q105.32-28.20 103.19-22.30L103.19-22.30L103.19-22.30Q101.54-17.70 101.54-12.04ZM143.49-16.58L143.49-16.58L143.49-16.58Q145.61-20.36 145.61-24.19L145.61-24.19L145.61-24.19Q145.61-26.73 143.78-26.73L143.78-26.73L143.78-26.73Q142.37-26.73 140.89-24.31L140.89-24.31L140.89-24.31Q139.36-21.89 138.89-18.76L138.89-18.76L135.82 0L123.61 1.18L129.62-30.09L139.36-31.27L138.30-25.31L138.30-25.31Q141.19-31.27 147.68-31.27L147.68-31.27L147.68-31.27Q151.10-31.27 152.96-29.50L152.96-29.50L152.96-29.50Q154.82-27.73 154.82-24.10L154.82-24.10L154.82-24.10Q154.82-20.47 152.43-18.17L152.43-18.17L152.43-18.17Q150.04-15.87 145.97-15.87L145.97-15.87L145.97-15.87Q144.20-15.87 143.49-16.58ZM158.33-1.77L158.33-1.77L158.33-1.77Q156.94-3.30 156.32-5.72L156.32-5.72L156.32-5.72Q155.70-8.14 155.70-12.10L155.70-12.10L155.70-12.10Q155.70-16.05 157.06-19.65L157.06-19.65L157.06-19.65Q158.41-23.25 160.89-25.84L160.89-25.84L160.89-25.84Q165.97-31.27 174.34-31.27L174.34-31.27L174.34-31.27Q177.35-31.27 179.54-30.27L179.54-30.27L189.63-31.27L185.26-8.26L185.26-8.26Q185.08-7.55 185.08-6.25L185.08-6.25L185.08-6.25Q185.08-4.96 185.88-4.13L185.88-4.13L185.88-4.13Q186.68-3.30 187.86-3.19L187.86-3.19L187.86-3.19Q187.27-1.18 185.11 0L185.11 0L185.11 0Q182.96 1.18 180.54 1.18L180.54 1.18L180.54 1.18Q178.12 1.18 176.50 0.27L176.50 0.27L176.50 0.27Q174.88-0.65 174.40-2.18L174.40-2.18L174.40-2.18Q173.46-0.71 171.45 0.24L171.45 0.24L171.45 0.24Q169.45 1.18 166.76 1.18L166.76 1.18L166.76 1.18Q164.08 1.18 161.90 0.47L161.90 0.47L161.90 0.47Q159.71-0.24 158.33-1.77ZM170.78-25.72L170.78-25.72L170.78-25.72Q170.10-24.66 169.51-22.86L169.51-22.86L169.51-22.86Q168.92-21.06 167.94-16.25L167.94-16.25L167.94-16.25Q166.97-11.45 166.97-8.02L166.97-8.02L166.97-8.02Q166.97-4.60 167.50-3.60L167.50-3.60L167.50-3.60Q168.03-2.60 168.98-2.60L168.98-2.60L168.98-2.60Q170.86-2.60 172.25-4.40L172.25-4.40L172.25-4.40Q173.64-6.20 174.17-9.38L174.17-9.38L177.30-26.67L177.30-26.67Q176.06-27.73 174.61-27.73L174.61-27.73L174.61-27.73Q173.17-27.73 172.31-27.26L172.31-27.26L172.31-27.26Q171.45-26.79 170.78-25.72ZM235.29 1.18L235.29 1.18L235.29 1.18Q228.15 1.18 228.15-4.37L228.15-4.37L228.15-4.37Q228.15-6.79 229.19-11.48L229.19-11.48L229.19-11.48Q230.22-16.17 230.57-18.05L230.57-18.05L230.57-18.05Q231.40-22.36 231.40-23.72L231.40-23.72L231.40-23.72Q231.40-26.73 229.16-26.73L229.16-26.73L229.16-26.73Q227.68-26.73 226.26-24.69L226.26-24.69L226.26-24.69Q224.85-22.66 224.20-18.59L224.20-18.59L220.54 0L209.04 1.18L212.22-14.87L212.22-14.87Q212.75-17.52 213.23-20.53L213.23-20.53L213.23-20.53Q213.70-23.54 213.70-24.01L213.70-24.01L213.70-24.01Q213.70-26.73 211.69-26.73L211.69-26.73L211.69-26.73Q210.34-26.73 208.86-24.72L208.86-24.72L208.86-24.72Q207.38-22.71 206.56-18.59L206.56-18.59L202.96 0L191.34 1.18L197.53-30.09L207.15-31.27L206.15-25.31L206.15-25.31Q207.68-28.50 210.51-29.88L210.51-29.88L210.51-29.88Q213.34-31.27 217.77-31.27L217.77-31.27L217.77-31.27Q220.31-31.27 221.96-30.03L221.96-30.03L221.96-30.03Q223.61-28.79 224.14-26.79L224.14-26.79L224.14-26.79Q225.14-28.85 227.71-30.06L227.71-30.06L227.71-30.06Q230.28-31.27 233.43-31.27L233.43-31.27L233.43-31.27Q236.59-31.27 238.15-30.59L238.15-30.59L238.15-30.59Q239.72-29.91 240.66-28.79L240.66-28.79L240.66-28.79Q242.25-26.73 242.25-22.95L242.25-22.95L242.25-22.95Q242.25-19.23 240.66-11.51L240.66-11.51L240.66-11.51Q239.84-7.73 239.84-6.34L239.84-6.34L239.84-6.34Q239.84-4.96 240.63-4.13L240.63-4.13L240.63-4.13Q241.43-3.30 242.61-3.19L242.61-3.19L242.61-3.19Q242.02-1.18 239.98 0L239.98 0L239.98 0Q237.95 1.18 235.29 1.18Z" fill="#e49c49"></path></g></g><style>text {
  font-size: 64px;
  font-family: Arial Black;
  dominant-baseline: central;
  text-anchor: middle;
}</style></svg>